<svg xmlns="http://www.w3.org/2000/svg" width="25.54" height="15.536" viewBox="0 0 25.54 15.536">
  <g id="deposit-icon" transform="translate(-61.457 -191.95)">
    <path id="Icon_awesome-arrow-up" data-name="Icon awesome-arrow-up" d="M1.4,11.093.639,10.33a.821.821,0,0,1,0-1.164L7.313,2.489a.821.821,0,0,1,1.164,0l6.674,6.674a.821.821,0,0,1,0,1.164l-.763.763a.825.825,0,0,1-1.178-.014L9.271,6.94v9.872a.822.822,0,0,1-.824.824h-1.1a.822.822,0,0,1-.824-.824V6.94L2.58,11.079A.819.819,0,0,1,1.4,11.093Z" transform="translate(71.603 189.754)" fill="#0e2d61"/>
    <g id="layer1" transform="translate(61.49 -610.421)">
      <path id="path4158" d="M6.157,817.81.578,810.83l.032-1.383c2.618.181,4.654-.1,5.127-2.573l-5.579-.032.9-1.512,4.45.064c-.678-1.409-2.543-1.583-5.45-1.479l1-1.48,9.448-.014-.935,1.462H6.963a2.671,2.671,0,0,1,.838,1.576l2.709-.032-.935,1.447-1.806.032C7.487,809.065,5.5,810.343,3,810.637l5.616,7.171H6.157Z" fill="#0e2d61" stroke="#000" stroke-width="0.099"/>
    </g>
  </g>
</svg>
