<svg width="20" height="20" viewBox="0 0 20 20" fill="none" xmlns="http://www.w3.org/2000/svg">
<path d="M19.7074 9.29482L10.7052 0.292573C10.3151 -0.0975244 9.68492 -0.0975244 9.29482 0.292573L0.292573 9.29482C-0.0975244 9.68492 -0.0975244 10.3151 0.292573 10.7052L9.29482 19.7074C9.68492 20.0975 10.3151 20.0975 10.7052 19.7074L19.7074 10.7052C20.0975 10.3251 20.0975 9.69492 19.7074 9.29482ZM11.9955 12.5056V10.005H7.9945V12.0055C7.9945 12.5556 7.54439 13.0057 6.99425 13.0057C6.44411 13.0057 5.994 12.5556 5.994 12.0055V9.00475C5.994 8.45461 6.44411 8.0045 6.99425 8.0045H11.9955V5.50388L15.1463 8.65466C15.3463 8.85471 15.3463 9.16479 15.1463 9.36484L11.9955 12.5056Z" fill="#2AB457"/>
</svg>
