<svg xmlns="http://www.w3.org/2000/svg" width="25.705" height="15.653" viewBox="0 0 25.705 15.653">
  <g id="withdraw-icon" transform="translate(-290.457 -192)">
    <path id="Icon_awesome-arrow-down" data-name="Icon awesome-arrow-down" d="M14.543,8.864l.771.771a.83.83,0,0,1,0,1.177L8.568,17.561a.83.83,0,0,1-1.177,0L.642,10.812a.83.83,0,0,1,0-1.177l.771-.771A.834.834,0,0,1,2.6,8.878l3.986,4.184V3.083a.831.831,0,0,1,.833-.833H8.533a.831.831,0,0,1,.833.833v9.978l3.986-4.184a.828.828,0,0,1,1.191-.014Z" transform="translate(300.603 189.75)" fill="#0e2d61"/>
    <g id="layer1" transform="translate(290.49 -610.254)">
      <path id="path4158" d="M6.157,817.81.578,810.83l.032-1.383c2.618.181,4.654-.1,5.127-2.573l-5.579-.032.9-1.512,4.45.064c-.678-1.409-2.543-1.583-5.45-1.479l1-1.48,9.448-.014-.935,1.462H6.963a2.671,2.671,0,0,1,.838,1.576l2.709-.032-.935,1.447-1.806.032C7.487,809.065,5.5,810.343,3,810.637l5.616,7.171H6.157Z" fill="#0e2d61" stroke="#000" stroke-width="0.099"/>
    </g>
  </g>
</svg>
